<svg width="50" height="50" viewBox="0 0 50 50" fill="none" xmlns="http://www.w3.org/2000/svg">
<path opacity="0.21" fill-rule="evenodd" clip-rule="evenodd" d="M0 25V45C0 47.7614 2.23858 50 5 50H25H45C47.7614 50 50 47.7614 50 45V25V5C50 2.23858 47.7614 0 45 0H25H5C2.23858 0 0 2.23858 0 5V25Z" fill="#791229"/>
<path fill-rule="evenodd" clip-rule="evenodd" d="M12.5 20.2629L23.2504 26.4697C23.3662 26.5365 23.4876 26.5848 23.6111 26.6154V38.6531L13.2667 32.5313C12.7915 32.2501 12.5 31.7389 12.5 31.1866V20.2629ZM37.4998 20.0981V31.1868C37.4998 31.7391 37.2083 32.2503 36.7331 32.5315L26.3887 38.6533V26.5102C26.4139 26.4976 26.4389 26.4842 26.4636 26.4699L37.4998 20.0981Z" fill="#791229"/>
<path opacity="0.499209" fill-rule="evenodd" clip-rule="evenodd" d="M12.8359 17.2509C12.9673 17.085 13.133 16.9449 13.3262 16.842L24.2637 11.0164C24.7229 10.7719 25.2736 10.7719 25.7328 11.0164L36.6703 16.842C36.8192 16.9213 36.9519 17.0228 37.065 17.1411L25.0732 24.0645C24.9943 24.1101 24.9216 24.1621 24.8554 24.2197C24.7891 24.1621 24.7164 24.1101 24.6376 24.0645L12.8359 17.2509Z" fill="#791229"/>
</svg>
