<svg width="40" height="41" viewBox="0 0 40 41" fill="none" xmlns="http://www.w3.org/2000/svg">
<path opacity="0.21" fill-rule="evenodd" clip-rule="evenodd" d="M0 20.064V35.064C0 37.8254 2.23858 40.064 5 40.064H20H35C37.7614 40.064 40 37.8254 40 35.064V20.064V5.06396C40 2.30254 37.7614 0.0639648 35 0.0639648H20H5C2.23858 0.0639648 0 2.30254 0 5.06396V20.064Z" fill="#4AD991"/>
<path d="M12.742 27.3228H28.2976C28.8703 27.3228 29.3346 27.7871 29.3346 28.3599C29.3346 28.9326 28.8703 29.3969 28.2976 29.3969H11.705C11.1323 29.3969 10.668 28.9326 10.668 28.3599V11.7673C10.668 11.1945 11.1323 10.7302 11.705 10.7302C12.2777 10.7302 12.742 11.1945 12.742 11.7673V27.3228Z" fill="#4AD991"/>
<path opacity="0.5" d="M16.61 22.847C16.2183 23.2648 15.562 23.286 15.1442 22.8942C14.7263 22.5025 14.7052 21.8462 15.0969 21.4284L18.9858 17.2803C19.3646 16.8762 19.9941 16.8411 20.4155 17.2007L23.4849 19.8199L27.4839 14.7543C27.8388 14.3048 28.491 14.2281 28.9405 14.583C29.39 14.9379 29.4667 15.59 29.1118 16.0395L24.4452 21.9506C24.0807 22.4124 23.4055 22.4788 22.9581 22.0969L19.822 19.4208L16.61 22.847Z" fill="#4AD991"/>
</svg>
