<svg width="41" height="40" viewBox="0 0 41 40" fill="none" xmlns="http://www.w3.org/2000/svg">
<path opacity="0.21" fill-rule="evenodd" clip-rule="evenodd" d="M0.232422 20V35C0.232422 37.7614 2.471 40 5.23242 40H20.2324H35.2324C37.9938 40 40.2324 37.7614 40.2324 35V20V5C40.2324 2.23858 37.9938 0 35.2324 0H20.2324H5.23242C2.471 0 0.232422 2.23858 0.232422 5V20Z" fill="#2758C1"/>
<path opacity="0.587821" fill-rule="evenodd" clip-rule="evenodd" d="M12.5435 14.4445C12.5435 16.8991 14.4451 18.8889 16.7909 18.8889C19.1367 18.8889 21.0384 16.8991 21.0384 14.4445C21.0384 11.9899 19.1367 10 16.7909 10C14.4451 10 12.5435 11.9899 12.5435 14.4445ZM23.162 18.89C23.162 20.7309 24.5883 22.2233 26.3476 22.2233C28.107 22.2233 29.5332 20.7309 29.5332 18.89C29.5332 17.049 28.107 15.5566 26.3476 15.5566C24.5883 15.5566 23.162 17.049 23.162 18.89Z" fill="#2758C1"/>
<path fill-rule="evenodd" clip-rule="evenodd" d="M16.7715 21.1111C11.758 21.1111 7.6447 23.8072 7.23311 29.1102C7.21069 29.3991 7.73863 30 8.00493 30H25.5461C26.3438 30 26.3562 29.3283 26.3438 29.1111C26.0326 23.6591 21.8556 21.1111 16.7715 21.1111ZM25.9203 23.3334C27.2533 25.1903 28.0433 27.4983 28.0436 29.9994H32.1381C32.7142 29.9994 32.7232 29.4957 32.7142 29.3328C32.4919 25.2882 29.5379 23.3745 25.9203 23.3334Z" fill="#2758C1"/>
</svg>
